{
  "accessors": [
    {
      "bufferView": 0,
      "componentType": 5126,
      "count": 51,
      "type": "VEC3",
      "max": [
        0.0067052780650556087,
        0.01767931692302227,
        0.016711652278900146
      ],
      "min": [
        -0.0067052915692329407,
        -0.094796046614646912,
        -0.010923647321760654
      ]
    },
    {
      "bufferView": 1,
      "componentType": 5126,
      "count": 51,
      "type": "VEC3",
      "max": [
        0.99987542629241943,
        0.99673944711685181,
        0.99996733665466309
      ],
      "min": [
        -0.99987542629241943,
        -0.920114278793335,
        -0.99997127056121826
      ]
    },
    {
      "bufferView": 2,
      "componentType": 5126,
      "count": 51,
      "type": "VEC4",
      "max": [
        0.9999997615814209,
        0.53508418798446655,
        0.99998319149017334,
        1.0
      ],
      "min": [
        -0.99382299184799194,
        -0.99997127056121826,
        -0.7749144434928894,
        -1.0
      ]
    },
    {
      "bufferView": 3,
      "componentType": 5126,
      "count": 51,
      "type": "VEC2",
      "max": [
        0.85773462057113647,
        0.9884803295135498
      ],
      "min": [
        0.021906636655330658,
        0.54764318466186523
      ]
    },
    {
      "bufferView": 4,
      "componentType": 5126,
      "count": 51,
      "type": "VEC4",
      "max": [
        1.0,
        1.0,
        1.0,
        1.0
      ],
      "min": [
        1.0,
        1.0,
        1.0,
        1.0
      ]
    },
    {
      "bufferView": 5,
      "componentType": 5121,
      "count": 192,
      "type": "SCALAR",
      "max": [
        50.0
      ],
      "min": [
        0.0
      ]
    },
    {
      "bufferView": 6,
      "componentType": 5126,
      "count": 1094,
      "type": "VEC3",
      "max": [
        0.0667714774608612,
        0.013792119920253754,
        0.15422643721103668
      ],
      "min": [
        -0.0667714774608612,
        -0.021326115354895592,
        -3.5762786065873797E-09
      ]
    },
    {
      "bufferView": 7,
      "componentType": 5126,
      "count": 1094,
      "type": "VEC3",
      "max": [
        0.99650973081588745,
        0.9999840259552002,
        0.99888676404953
      ],
      "min": [
        -0.99650973081588745,
        -0.9999842643737793,
        -0.999275267124176
      ]
    },
    {
      "bufferView": 8,
      "componentType": 5126,
      "count": 1094,
      "type": "VEC4",
      "max": [
        0.9999997615814209,
        0.9997260570526123,
        0.99458348751068115,
        1.0
      ],
      "min": [
        -0.9999997615814209,
        -0.99871605634689331,
        -0.96916520595550537,
        -1.0
      ]
    },
    {
      "bufferView": 9,
      "componentType": 5126,
      "count": 1094,
      "type": "VEC2",
      "max": [
        0.99625355005264282,
        0.98878437280654907
      ],
      "min": [
        0.0054551893845200539,
        0.0064761042594909668
      ]
    },
    {
      "bufferView": 10,
      "componentType": 5126,
      "count": 1094,
      "type": "VEC4",
      "max": [
        1.0,
        1.0,
        1.0,
        1.0
      ],
      "min": [
        1.0,
        1.0,
        1.0,
        1.0
      ]
    },
    {
      "bufferView": 11,
      "componentType": 5123,
      "count": 4362,
      "type": "SCALAR",
      "max": [
        1093.0
      ],
      "min": [
        0.0
      ]
    }
  ],
  "asset": {
    "version": "2.0"
  },
  "buffers": [
    {
      "uri": "Skeleton.bin",
      "byteLength": 82196
    }
  ],
  "bufferViews": [
    {
      "buffer": 0,
      "byteLength": 612
    },
    {
      "buffer": 0,
      "byteOffset": 612,
      "byteLength": 612
    },
    {
      "buffer": 0,
      "byteOffset": 1224,
      "byteLength": 816
    },
    {
      "buffer": 0,
      "byteOffset": 2040,
      "byteLength": 408
    },
    {
      "buffer": 0,
      "byteOffset": 2448,
      "byteLength": 816
    },
    {
      "buffer": 0,
      "byteOffset": 3264,
      "byteLength": 192
    },
    {
      "buffer": 0,
      "byteOffset": 3456,
      "byteLength": 13128
    },
    {
      "buffer": 0,
      "byteOffset": 16584,
      "byteLength": 13128
    },
    {
      "buffer": 0,
      "byteOffset": 29712,
      "byteLength": 17504
    },
    {
      "buffer": 0,
      "byteOffset": 47216,
      "byteLength": 8752
    },
    {
      "buffer": 0,
      "byteOffset": 55968,
      "byteLength": 17504
    },
    {
      "buffer": 0,
      "byteOffset": 73472,
      "byteLength": 8724
    }
  ],
  "materials": [
    {
      "name": "skeleton_D"
    }
  ],
  "meshes": [
    {
      "primitives": [
        {
          "attributes": {
            "POSITION": 0,
            "NORMAL": 1,
            "TANGENT": 2,
            "TEXCOORD_0": 3,
            "COLOR_0": 4
          },
          "indices": 5,
          "material": 0
        }
      ],
      "name": "Object01"
    },
    {
      "primitives": [
        {
          "attributes": {
            "POSITION": 6,
            "NORMAL": 7,
            "TANGENT": 8,
            "TEXCOORD_0": 9,
            "COLOR_0": 10
          },
          "indices": 11,
          "material": 0
        }
      ],
      "name": "Object02"
    }
  ],
  "nodes": [
    {
      "children": [
        1,
        38,
        39
      ],
      "scale": [
        5.0,
        5.0,
        5.0
      ],
      "name": "Skeleton"
    },
    {
      "children": [
        2,
        3,
        37
      ],
      "rotation": [
        -0.500000358,
        -0.499999642,
        -0.499999642,
        0.500000358
      ],
      "scale": [
        0.99999994,
        0.99999994,
        1.0
      ],
      "translation": [
        1.05878968E-24,
        0.06659,
        3.998719E-09
      ],
      "name": "Bip001"
    },
    {
      "rotation": [
        0.0,
        0.0,
        0.7071063,
        0.707107246
      ],
      "translation": [
        0.0,
        0.0,
        -0.0665777251
      ],
      "name": "Bip001 Footsteps"
    },
    {
      "children": [
        4
      ],
      "rotation": [
        -0.499999642,
        -0.500000358,
        -0.499999642,
        0.500000358
      ],
      "scale": [
        1.0,
        0.99999994,
        0.99999994
      ],
      "name": "Bip001 Pelvis"
    },
    {
      "children": [
        5,
        9,
        13
      ],
      "rotation": [
        -2.080476E-06,
        -6.93676E-07,
        0.000398159,
        0.99999994
      ],
      "scale": [
        1.0,
        0.99999994,
        0.99999994
      ],
      "translation": [
        0.006278529,
        0.00318001048,
        -8.209099E-11
      ],
      "name": "Bip001 Spine"
    },
    {
      "children": [
        6
      ],
      "rotation": [
        -0.05375741,
        -0.9928368,
        -0.05531773,
        0.0912428349
      ],
      "scale": [
        1.0,
        1.00000012,
        1.00000012
      ],
      "translation": [
        -0.00628105644,
        -0.00317503884,
        0.0115356883
      ],
      "name": "Bip001 L Thigh"
    },
    {
      "children": [
        7
      ],
      "rotation": [
        4.730961E-09,
        1.45013024E-08,
        -0.0998322442,
        0.9950043
      ],
      "scale": [
        1.0,
        1.00000012,
        1.00000012
      ],
      "translation": [
        0.0265643466,
        0.0,
        -2.38418574E-09
      ],
      "name": "Bip001 L Calf"
    },
    {
      "children": [
        8
      ],
      "rotation": [
        -0.09942482,
        -0.0916762948,
        0.0314330123,
        0.9903142
      ],
      "scale": [
        1.00000012,
        0.99999994,
        1.00000012
      ],
      "translation": [
        0.0331641659,
        4.47034826E-10,
        0.0
      ],
      "name": "Bip001 L Foot"
    },
    {
      "rotation": [
        -1.54543116E-08,
        -1.54543116E-08,
        0.7071068,
        0.7071068
      ],
      "scale": [
        1.0,
        0.99999994,
        1.0
      ],
      "translation": [
        0.008066026,
        0.0132596307,
        0.0
      ],
      "name": "Bip001 L Toe0"
    },
    {
      "children": [
        10
      ],
      "rotation": [
        -0.0537576675,
        -0.992836952,
        0.05531498,
        -0.0912427753
      ],
      "translation": [
        -0.00628105644,
        -0.00317497482,
        -0.0115356976
      ],
      "name": "Bip001 R Thigh"
    },
    {
      "children": [
        11
      ],
      "rotation": [
        -1.20714316E-09,
        -7.36687245E-09,
        -0.0998322442,
        0.9950043
      ],
      "scale": [
        0.9999999,
        1.00000012,
        1.0
      ],
      "translation": [
        0.0265643448,
        5.96046434E-10,
        0.0
      ],
      "name": "Bip001 R Calf"
    },
    {
      "children": [
        12
      ],
      "rotation": [
        0.09942481,
        0.0916763842,
        0.0314329937,
        0.9903142
      ],
      "scale": [
        0.99999994,
        0.9999998,
        0.9999999
      ],
      "translation": [
        0.0331641659,
        8.94069652E-10,
        0.0
      ],
      "name": "Bip001 R Foot"
    },
    {
      "rotation": [
        1.54543134E-08,
        1.54543134E-08,
        0.7071068,
        0.7071068
      ],
      "scale": [
        1.00000012,
        1.0,
        1.00000012
      ],
      "translation": [
        0.008066027,
        0.0132596325,
        0.0
      ],
      "name": "Bip001 R Toe0"
    },
    {
      "children": [
        14
      ],
      "rotation": [
        -3.01176727E-14,
        0.0,
        0.0,
        1.0
      ],
      "translation": [
        0.017967863,
        -1.907587E-05,
        -5.2909E-11
      ],
      "name": "Bip001 Spine1"
    },
    {
      "children": [
        15,
        17,
        27
      ],
      "rotation": [
        -6.0261705E-14,
        -4.31043958E-07,
        0.15540953,
        0.9878501
      ],
      "translation": [
        0.02997201,
        -0.00234360388,
        3.65749875E-10
      ],
      "name": "Bip001 Neck"
    },
    {
      "children": [
        16
      ],
      "rotation": [
        -2.38988432E-14,
        9.116674E-08,
        -0.03287012,
        0.9994596
      ],
      "scale": [
        1.0,
        1.0,
        0.99999994
      ],
      "translation": [
        0.0110190483,
        0.0,
        -9.094947E-15
      ],
      "name": "Bip001 Head"
    },
    {
      "rotation": [
        -0.610787749,
        -0.79179436,
        -6.42271061E-07,
        7.090004E-07
      ],
      "scale": [
        1.00000012,
        1.0,
        1.0
      ],
      "translation": [
        0.001927948,
        0.000201976291,
        -9.536734E-09
      ],
      "name": "Bone001"
    },
    {
      "children": [
        18
      ],
      "rotation": [
        -0.49706158,
        0.0784021839,
        -0.8536131,
        -0.134638846
      ],
      "scale": [
        0.99999994,
        1.0,
        0.99999994
      ],
      "translation": [
        -0.00102038379,
        -0.0009706926,
        0.009127116
      ],
      "name": "Bip001 L Clavicle"
    },
    {
      "children": [
        19
      ],
      "rotation": [
        0.0443143249,
        0.0784128457,
        0.05894033,
        0.994190037
      ],
      "scale": [
        0.99999994,
        0.99999994,
        1.00000012
      ],
      "translation": [
        0.009862542,
        -1.11758706E-10,
        -9.536743E-09
      ],
      "name": "Bip001 L UpperArm"
    },
    {
      "children": [
        20
      ],
      "rotation": [
        6.4542367E-09,
        2.92770643E-08,
        -0.107830986,
        0.9941693
      ],
      "translation": [
        0.02375839,
        -1.19209287E-09,
        -9.536743E-09
      ],
      "name": "Bip001 L Forearm"
    },
    {
      "children": [
        21,
        24
      ],
      "rotation": [
        -0.766423464,
        0.035446126,
        0.07008074,
        0.6375166
      ],
      "scale": [
        0.99999994,
        1.0,
        1.0
      ],
      "translation": [
        0.0184641425,
        0.0,
        0.0
      ],
      "name": "Bip001 L Hand"
    },
    {
      "children": [
        22
      ],
      "rotation": [
        0.46480754,
        0.470710367,
        -0.0524881072,
        0.748084664
      ],
      "translation": [
        0.009409463,
        0.0008181095,
        -0.00580380764
      ],
      "name": "Bip001 L Finger0"
    },
    {
      "children": [
        23
      ],
      "rotation": [
        2.85750468E-09,
        6.48461063E-09,
        0.008169164,
        0.9999666
      ],
      "scale": [
        0.99999994,
        0.99999994,
        0.99999994
      ],
      "translation": [
        0.00517244544,
        0.0,
        -4.76837148E-09
      ],
      "name": "Bip001 L Finger01"
    },
    {
      "rotation": [
        4.47660042E-09,
        -1.25870283E-08,
        0.165755436,
        0.9861669
      ],
      "scale": [
        0.99999994,
        0.99999994,
        0.99999994
      ],
      "translation": [
        0.00304695126,
        0.0,
        0.0
      ],
      "name": "Bip001 L Finger02"
    },
    {
      "children": [
        25
      ],
      "rotation": [
        -0.000444282341,
        -0.0474298373,
        0.100598454,
        0.9937959
      ],
      "scale": [
        1.0,
        1.00000012,
        0.9999999
      ],
      "translation": [
        0.0177077558,
        3.604889E-06,
        -0.000414589042
      ],
      "name": "Bip001 L Finger1"
    },
    {
      "children": [
        26
      ],
      "rotation": [
        4.54680027E-09,
        1.72503989E-09,
        0.169102252,
        0.9855985
      ],
      "scale": [
        1.0,
        1.00000012,
        1.0
      ],
      "translation": [
        0.00341536757,
        0.0,
        0.0
      ],
      "name": "Bip001 L Finger11"
    },
    {
      "rotation": [
        -6.72066358E-09,
        1.08773957E-09,
        0.116402224,
        0.9932022
      ],
      "scale": [
        0.99999994,
        1.0,
        1.0
      ],
      "translation": [
        0.00252603041,
        0.0,
        0.0
      ],
      "name": "Bip001 L Finger12"
    },
    {
      "children": [
        28
      ],
      "rotation": [
        0.497061253,
        -0.07839983,
        -0.8536133,
        -0.134640247
      ],
      "scale": [
        0.99999994,
        1.0,
        0.99999994
      ],
      "translation": [
        -0.00102038379,
        -0.000970642548,
        -0.009127134
      ],
      "name": "Bip001 R Clavicle"
    },
    {
      "children": [
        29
      ],
      "rotation": [
        -0.04431433,
        -0.0784128457,
        0.05894033,
        0.994190037
      ],
      "scale": [
        1.0,
        0.99999994,
        1.00000012
      ],
      "translation": [
        0.009862542,
        1.49011609E-10,
        9.536743E-09
      ],
      "name": "Bip001 R UpperArm"
    },
    {
      "children": [
        30
      ],
      "rotation": [
        -8.17678E-09,
        -4.407879E-08,
        -0.107830986,
        0.9941693
      ],
      "translation": [
        0.02375839,
        -1.19209287E-09,
        0.0
      ],
      "name": "Bip001 R Forearm"
    },
    {
      "children": [
        31,
        34
      ],
      "rotation": [
        0.766423464,
        -0.035446126,
        0.07008074,
        0.6375166
      ],
      "scale": [
        0.99999994,
        0.99999994,
        0.99999994
      ],
      "translation": [
        0.0184641425,
        -5.96046434E-10,
        0.0
      ],
      "name": "Bip001 R Hand"
    },
    {
      "children": [
        32
      ],
      "rotation": [
        -0.46480757,
        -0.470710337,
        -0.0524881259,
        0.748084664
      ],
      "scale": [
        1.00000012,
        1.00000012,
        0.99999994
      ],
      "translation": [
        0.009409461,
        0.0008181095,
        0.005803809
      ],
      "name": "Bip001 R Finger0"
    },
    {
      "children": [
        33
      ],
      "rotation": [
        -3.514692E-09,
        2.70713829E-09,
        0.008169179,
        0.9999666
      ],
      "scale": [
        1.0,
        0.99999994,
        0.99999994
      ],
      "translation": [
        0.005172448,
        0.0,
        -4.76837148E-09
      ],
      "name": "Bip001 R Finger01"
    },
    {
      "rotation": [
        5.80398E-09,
        -3.62834762E-09,
        0.165755421,
        0.9861669
      ],
      "scale": [
        1.0,
        0.99999994,
        0.99999994
      ],
      "translation": [
        0.003046949,
        -4.76837148E-09,
        9.536743E-09
      ],
      "name": "Bip001 R Finger02"
    },
    {
      "children": [
        35
      ],
      "rotation": [
        0.000444277452,
        0.04742985,
        0.100598469,
        0.9937959
      ],
      "scale": [
        1.0,
        0.99999994,
        1.0
      ],
      "translation": [
        0.0177077577,
        3.604889E-06,
        0.00041458843
      ],
      "name": "Bip001 R Finger1"
    },
    {
      "children": [
        36
      ],
      "rotation": [
        -9.179102E-10,
        -1.57488744E-10,
        0.169102252,
        0.9855985
      ],
      "scale": [
        1.0,
        0.99999994,
        1.0
      ],
      "translation": [
        0.00341536757,
        0.0,
        0.0
      ],
      "name": "Bip001 R Finger11"
    },
    {
      "rotation": [
        6.417129E-09,
        7.52080731E-10,
        0.116402239,
        0.99320215
      ],
      "scale": [
        0.99999994,
        1.0,
        1.0
      ],
      "translation": [
        0.00252603041,
        0.0,
        0.0
      ],
      "name": "Bip001 R Finger12"
    },
    {
      "rotation": [
        -1.616814E-07,
        0.6959042,
        2.09671569E-07,
        0.718134642
      ],
      "scale": [
        1.00000012,
        1.0,
        1.0
      ],
      "translation": [
        0.00313268928,
        -0.0593180768,
        0.008222337
      ],
      "name": "Bip001 Prop1"
    },
    {
      "mesh": 0,
      "rotation": [
        -0.7071068,
        0.0,
        0.0,
        0.7071068
      ],
      "translation": [
        -0.05929612,
        0.07498819,
        0.004813067
      ],
      "name": "Object01"
    },
    {
      "mesh": 1,
      "rotation": [
        -0.7071068,
        0.0,
        0.0,
        0.7071068
      ],
      "translation": [
        0.0,
        1.323489E-25,
        -7.23414939E-10
      ],
      "name": "Object02"
    }
  ],
  "scene": 0,
  "scenes": [
    {
      "nodes": [
        0
      ],
      "name": "Skeleton"
    }
  ]
}