{
  "accessors": [
    {
      "bufferView": 0,
      "componentType": 5126,
      "count": 550,
      "type": "VEC3",
      "max": [
        0.5,
        1.0,
        0.5
      ],
      "min": [
        -0.5,
        -1.0,
        -0.5
      ]
    },
    {
      "bufferView": 1,
      "componentType": 5126,
      "count": 550,
      "type": "VEC3",
      "max": [
        0.99871253967285156,
        1.0,
        0.99871253967285156
      ],
      "min": [
        -0.99871253967285156,
        -0.99999916553497314,
        -0.99871253967285156
      ]
    },
    {
      "bufferView": 2,
      "componentType": 5126,
      "count": 550,
      "type": "VEC4",
      "max": [
        1.0,
        0.0303095281124115,
        1.0,
        1.0
      ],
      "min": [
        -1.0,
        -0.031331468373537064,
        -1.0,
        -1.0
      ]
    },
    {
      "bufferView": 3,
      "componentType": 5126,
      "count": 550,
      "type": "VEC2",
      "max": [
        0.99892324209213257,
        0.99884068965911865
      ],
      "min": [
        -0.0010808706283569336,
        -5.3644180297851563E-06
      ]
    },
    {
      "bufferView": 4,
      "componentType": 5126,
      "count": 550,
      "type": "VEC2",
      "max": [
        0.99924451112747192,
        1.0
      ],
      "min": [
        0.0,
        0.20864897966384888
      ]
    },
    {
      "bufferView": 5,
      "componentType": 5123,
      "count": 2496,
      "type": "SCALAR",
      "max": [
        549.0
      ],
      "min": [
        0.0
      ]
    },
    {
      "bufferView": 6,
      "componentType": 5126,
      "count": 24,
      "type": "VEC3",
      "max": [
        0.5,
        0.5,
        0.5
      ],
      "min": [
        -0.5,
        -0.5,
        -0.5
      ]
    },
    {
      "bufferView": 7,
      "componentType": 5126,
      "count": 24,
      "type": "VEC3",
      "max": [
        1.0,
        1.0,
        1.0
      ],
      "min": [
        -1.0,
        -1.0,
        -1.0
      ]
    },
    {
      "bufferView": 8,
      "componentType": 5126,
      "count": 24,
      "type": "VEC4",
      "max": [
        1.0,
        0.0,
        1.0,
        1.0
      ],
      "min": [
        0.0,
        0.0,
        -1.0,
        1.0
      ]
    },
    {
      "bufferView": 9,
      "componentType": 5126,
      "count": 24,
      "type": "VEC2",
      "max": [
        1.0,
        1.0
      ],
      "min": [
        0.0,
        0.0
      ]
    },
    {
      "bufferView": 10,
      "componentType": 5126,
      "count": 24,
      "type": "VEC2",
      "max": [
        0.9966580867767334,
        0.99594426155090332
      ],
      "min": [
        0.0040557663887739182,
        0.34716415405273438
      ]
    },
    {
      "bufferView": 11,
      "componentType": 5121,
      "count": 36,
      "type": "SCALAR",
      "max": [
        23.0
      ],
      "min": [
        0.0
      ]
    }
  ],
  "asset": {
    "version": "2.0"
  },
  "buffers": [
    {
      "uri": "Car.bin",
      "byteLength": 37172
    }
  ],
  "bufferViews": [
    {
      "buffer": 0,
      "byteLength": 6600
    },
    {
      "buffer": 0,
      "byteOffset": 6600,
      "byteLength": 6600
    },
    {
      "buffer": 0,
      "byteOffset": 13200,
      "byteLength": 8800
    },
    {
      "buffer": 0,
      "byteOffset": 22000,
      "byteLength": 4400
    },
    {
      "buffer": 0,
      "byteOffset": 26400,
      "byteLength": 4400
    },
    {
      "buffer": 0,
      "byteOffset": 30800,
      "byteLength": 4992
    },
    {
      "buffer": 0,
      "byteOffset": 35792,
      "byteLength": 288
    },
    {
      "buffer": 0,
      "byteOffset": 36080,
      "byteLength": 288
    },
    {
      "buffer": 0,
      "byteOffset": 36368,
      "byteLength": 384
    },
    {
      "buffer": 0,
      "byteOffset": 36752,
      "byteLength": 192
    },
    {
      "buffer": 0,
      "byteOffset": 36944,
      "byteLength": 192
    },
    {
      "buffer": 0,
      "byteOffset": 37136,
      "byteLength": 36
    }
  ],
  "materials": [
    {
      "pbrMetallicRoughness": {
        "metallicFactor": 0.0,
        "roughnessFactor": 0.5
      },
      "name": "Default-Material"
    }
  ],
  "meshes": [
    {
      "primitives": [
        {
          "attributes": {
            "POSITION": 0,
            "NORMAL": 1,
            "TANGENT": 2,
            "TEXCOORD_0": 3,
            "TEXCOORD_1": 4
          },
          "indices": 5,
          "material": 0
        }
      ],
      "name": "Wheel1"
    },
    {
      "primitives": [
        {
          "attributes": {
            "POSITION": 6,
            "NORMAL": 7,
            "TANGENT": 8,
            "TEXCOORD_0": 9,
            "TEXCOORD_1": 10
          },
          "indices": 11,
          "material": 0
        }
      ],
      "name": "Cube"
    }
  ],
  "nodes": [
    {
      "children": [
        1,
        2,
        3,
        4,
        5,
        6
      ],
      "name": "Car"
    },
    {
      "mesh": 0,
      "rotation": [
        0.0,
        0.0,
        -0.7071068,
        0.7071068
      ],
      "scale": [
        1.0,
        0.100000061,
        1.0
      ],
      "translation": [
        0.586665034,
        -1.05054474,
        -0.361248016
      ],
      "name": "Wheel1"
    },
    {
      "mesh": 0,
      "rotation": [
        0.0,
        0.0,
        -0.7071068,
        0.7071068
      ],
      "scale": [
        1.0,
        0.100000061,
        1.0
      ],
      "translation": [
        2.58666515,
        -1.05054474,
        -0.361248016
      ],
      "name": "Wheel2"
    },
    {
      "mesh": 0,
      "rotation": [
        0.0,
        0.0,
        -0.7071068,
        0.7071068
      ],
      "scale": [
        1.0,
        0.100000061,
        1.0
      ],
      "translation": [
        2.58666515,
        -1.05054474,
        1.638752
      ],
      "name": "Wheel3"
    },
    {
      "mesh": 0,
      "rotation": [
        0.0,
        0.0,
        -0.7071068,
        0.7071068
      ],
      "scale": [
        1.0,
        0.100000061,
        1.0
      ],
      "translation": [
        0.586665034,
        -1.05054474,
        1.638752
      ],
      "name": "Wheel4"
    },
    {
      "mesh": 1,
      "scale": [
        1.95,
        1.0,
        4.0
      ],
      "translation": [
        1.586665,
        -0.550544739,
        0.638752
      ],
      "name": "Cube"
    },
    {
      "mesh": 1,
      "scale": [
        1.5,
        1.0,
        2.5
      ],
      "translation": [
        1.586665,
        -0.150544763,
        0.638752
      ],
      "name": "Cube (1)"
    }
  ],
  "scene": 0,
  "scenes": [
    {
      "nodes": [
        0
      ],
      "name": "Car"
    }
  ]
}