{
  "accessors": [
    {
      "bufferView": 2,
      "componentType": 5126,
      "count": 6088,
      "max": [
        8.4121856689453125,
        17.994213104248047,
        20.4080810546875
      ],
      "min": [
        -7.9234161376953125,
        -18.472890853881836,
        0.82311201095581055
      ],
      "type": "VEC3"
    },
    {
      "bufferView": 2,
      "byteOffset": 73056,
      "componentType": 5126,
      "count": 6088,
      "max": [
        1,
        1,
        1
      ],
      "min": [
        -1,
        -1,
        -1
      ],
      "type": "VEC3"
    },
    {
      "bufferView": 3,
      "componentType": 5126,
      "count": 6088,
      "max": [
        1,
        1,
        1,
        1
      ],
      "min": [
        -1,
        -1,
        -1,
        -1
      ],
      "type": "VEC4"
    },
    {
      "bufferView": 1,
      "componentType": 5126,
      "count": 6088,
      "max": [
        0.99747097492218018,
        0.99010097980499268
      ],
      "min": [
        0.007044999860227108,
        0.0062890001572668552
      ],
      "type": "VEC2"
    },
    {
      "bufferView": 0,
      "componentType": 5125,
      "count": 13500,
      "max": [
        6087
      ],
      "min": [
        0
      ],
      "type": "SCALAR"
    },
    {
      "bufferView": 2,
      "byteOffset": 146112,
      "componentType": 5126,
      "count": 5284,
      "max": [
        8.4163055419921875,
        16.910482406616211,
        21.281856536865234
      ],
      "min": [
        -7.9663538932800293,
        -16.272708892822266,
        0.26394098997116089
      ],
      "type": "VEC3"
    },
    {
      "bufferView": 2,
      "byteOffset": 209520,
      "componentType": 5126,
      "count": 5284,
      "max": [
        1,
        1,
        1
      ],
      "min": [
        -1,
        -1,
        -1
      ],
      "type": "VEC3"
    },
    {
      "bufferView": 3,
      "byteOffset": 97408,
      "componentType": 5126,
      "count": 5284,
      "max": [
        1,
        1,
        1,
        1
      ],
      "min": [
        -1,
        -1,
        -1,
        -1
      ],
      "type": "VEC4"
    },
    {
      "bufferView": 1,
      "byteOffset": 48704,
      "componentType": 5126,
      "count": 5284,
      "max": [
        0.94165802001953125,
        0.97718900442123413
      ],
      "min": [
        0.011308999732136726,
        0.040920998901128769
      ],
      "type": "VEC2"
    },
    {
      "bufferView": 0,
      "byteOffset": 54000,
      "componentType": 5125,
      "count": 14751,
      "max": [
        5283
      ],
      "min": [
        0
      ],
      "type": "SCALAR"
    },
    {
      "bufferView": 2,
      "byteOffset": 272928,
      "componentType": 5126,
      "count": 3781,
      "max": [
        7.6348419189453125,
        17.110372543334961,
        16.198429107666016
      ],
      "min": [
        -6.4877171516418457,
        -15.0921630859375,
        1.9783220291137695
      ],
      "type": "VEC3"
    },
    {
      "bufferView": 2,
      "byteOffset": 318300,
      "componentType": 5126,
      "count": 3781,
      "max": [
        1,
        1,
        1
      ],
      "min": [
        -1,
        -0.9999995231628418,
        -0.99971544742584229
      ],
      "type": "VEC3"
    },
    {
      "bufferView": 3,
      "byteOffset": 181952,
      "componentType": 5126,
      "count": 3781,
      "max": [
        1,
        1,
        0.99996131658554077,
        1
      ],
      "min": [
        -0.99996674060821533,
        -0.99973464012145996,
        -0.99993610382080078,
        -1
      ],
      "type": "VEC4"
    },
    {
      "bufferView": 1,
      "byteOffset": 90976,
      "componentType": 5126,
      "count": 3781,
      "max": [
        0.98227101564407349,
        0.88446599245071411
      ],
      "min": [
        0.011308999732136726,
        0.013806999661028385
      ],
      "type": "VEC2"
    },
    {
      "bufferView": 0,
      "byteOffset": 113004,
      "componentType": 5125,
      "count": 13167,
      "max": [
        3780
      ],
      "min": [
        0
      ],
      "type": "SCALAR"
    },
    {
      "bufferView": 2,
      "byteOffset": 363672,
      "componentType": 5126,
      "count": 12186,
      "max": [
        8.4121856689453125,
        17.994213104248047,
        21.711080551147461
      ],
      "min": [
        -8.8829803466796875,
        -18.472890853881836,
        -0.14566400647163391
      ],
      "type": "VEC3"
    },
    {
      "bufferView": 2,
      "byteOffset": 509904,
      "componentType": 5126,
      "count": 12186,
      "max": [
        1,
        1,
        1
      ],
      "min": [
        -1,
        -1,
        -1
      ],
      "type": "VEC3"
    },
    {
      "bufferView": 3,
      "byteOffset": 242448,
      "componentType": 5126,
      "count": 12186,
      "max": [
        1,
        1,
        1,
        1
      ],
      "min": [
        -1,
        -1,
        -1,
        -1
      ],
      "type": "VEC4"
    },
    {
      "bufferView": 1,
      "byteOffset": 121224,
      "componentType": 5126,
      "count": 12186,
      "max": [
        0.99139100313186646,
        0.98815697431564331
      ],
      "min": [
        0.0072730001993477345,
        0.0069590001367032528
      ],
      "type": "VEC2"
    },
    {
      "bufferView": 0,
      "byteOffset": 165672,
      "componentType": 5125,
      "count": 18345,
      "max": [
        12185
      ],
      "min": [
        0
      ],
      "type": "SCALAR"
    }
  ],
  "asset": {
    "extras": {
      "author": "Julien Chambriard (https://sketchfab.com/julienchambriard)",
      "license": "CC-BY-4.0 (http://creativecommons.org/licenses/by/4.0/)",
      "source": "https://sketchfab.com/models/da9d4bc606644fa7a78689f35982b932",
      "title": "Snail Truck"
    },
    "generator": "Sketchfab-3.26.6",
    "version": "2.0"
  },
  "bufferViews": [
    {
      "buffer": 0,
      "byteLength": 239052,
      "byteOffset": 0,
      "name": "floatBufferViews",
      "target": 34963
    },
    {
      "buffer": 0,
      "byteLength": 218712,
      "byteOffset": 239052,
      "byteStride": 8,
      "name": "floatBufferViews",
      "target": 34962
    },
    {
      "buffer": 0,
      "byteLength": 656136,
      "byteOffset": 457764,
      "byteStride": 12,
      "name": "floatBufferViews",
      "target": 34962
    },
    {
      "buffer": 0,
      "byteLength": 437424,
      "byteOffset": 1113900,
      "byteStride": 16,
      "name": "floatBufferViews",
      "target": 34962
    }
  ],
  "buffers": [
    {
      "byteLength": 1551324,
      "uri": "scene.bin"
    }
  ],
  "images": [
    {
      "uri": "textures/surfaceShader3SG_baseColor.png"
    }
  ],
  "materials": [
    {
      "alphaCutoff": 0.48608993900000003,
      "alphaMode": "MASK",
      "doubleSided": true,
      "name": "surfaceShader3SG",
      "pbrMetallicRoughness": {
        "baseColorFactor": [
          1,
          1,
          1,
          1
        ],
        "baseColorTexture": {
          "index": 0,
          "texCoord": 0
        },
        "metallicFactor": 0,
        "roughnessFactor": 0.59999999999999998
      }
    }
  ],
  "meshes": [
    {
      "primitives": [
        {
          "attributes": {
            "NORMAL": 1,
            "POSITION": 0,
            "TANGENT": 2,
            "TEXCOORD_0": 3
          },
          "indices": 4,
          "material": 0,
          "mode": 4
        }
      ]
    },
    {
      "primitives": [
        {
          "attributes": {
            "NORMAL": 6,
            "POSITION": 5,
            "TANGENT": 7,
            "TEXCOORD_0": 8
          },
          "indices": 9,
          "material": 0,
          "mode": 4
        }
      ]
    },
    {
      "primitives": [
        {
          "attributes": {
            "NORMAL": 11,
            "POSITION": 10,
            "TANGENT": 12,
            "TEXCOORD_0": 13
          },
          "indices": 14,
          "material": 0,
          "mode": 4
        }
      ]
    },
    {
      "primitives": [
        {
          "attributes": {
            "NORMAL": 16,
            "POSITION": 15,
            "TANGENT": 17,
            "TEXCOORD_0": 18
          },
          "indices": 19,
          "material": 0,
          "mode": 4
        }
      ]
    }
  ],
  "nodes": [
    {
      "children": [
        1
      ],
      "name": "RootNode (gltf orientation matrix)",
      "rotation": [
        -0.70710678118654746,
        -0,
        -0,
        0.70710678118654757
      ]
    },
    {
      "children": [
        2
      ],
      "name": "RootNode (model correction matrix)"
    },
    {
      "children": [
        3,
        4,
        5,
        6
      ],
      "name": "deacb9486fef4ac0bf9ff5f6ba00b162.obj.cleaner"
    },
    {
      "mesh": 0,
      "name": ""
    },
    {
      "mesh": 1,
      "name": ""
    },
    {
      "mesh": 2,
      "name": ""
    },
    {
      "mesh": 3,
      "name": ""
    }
  ],
  "samplers": [
    {
      "magFilter": 9729,
      "minFilter": 9987,
      "wrapS": 10497,
      "wrapT": 10497
    },
    {
      "magFilter": 9729,
      "minFilter": 9729,
      "wrapS": 10497,
      "wrapT": 10497
    }
  ],
  "scene": 0,
  "scenes": [
    {
      "name": "OSG_Scene",
      "nodes": [
        0
      ]
    }
  ],
  "textures": [
    {
      "sampler": 0,
      "source": 0
    }
  ]
}

